<?xml version="1.0" encoding="utf-8"?>
<!-- Generator: Adobe Illustrator 25.0.0, SVG Export Plug-In . SVG Version: 6.00 Build 0)  -->
<svg version="1.1" id="Layer_1" xmlns="http://www.w3.org/2000/svg" xmlns:xlink="http://www.w3.org/1999/xlink" x="0px" y="0px"
	 viewBox="0 0 448 448" style="enable-background:new 0 0 448 448;" xml:space="preserve">
<style type="text/css">
	.st0{fill:#FFFFFF;}
</style>
<path class="st0" d="M0,0.5v448h448V0.5H0z M138.8,373.8H74.6V174.3h64.2V373.8z M109,143.9h-0.5c-20.5,0-33.8-15.3-33.8-34.4
	c0-19.5,13.7-34.4,34.7-34.4s33.9,14.8,34.3,34.4C143.6,128.6,130.3,143.9,109,143.9z M373.3,373.8h-64.2V264.7
	c0-26.1-9.3-44-32.6-44c-17.7,0-28.2,12-32.9,23.7c-1.8,4.2-2.2,9.9-2.2,15.8v113.7h-64.2V174.3h64.2v27.8
	c9.3-13.3,23.9-32.4,57.9-32.4c42.1,0,74,27.8,74,87.6L373.3,373.8z"/>
</svg>
